# xmcd CD database file
#
# Track frame offsets:
#	150
#	15880
#	27627
#	38993
#	52417
#	66003
#	81918
#	93440
#	105757
#	119003
#	132168
#	145735
#	155918
#	167887
#	181475
#	194531
#	208174
#	221325
#	233883
#	246210
#	259708
#	274616
#	286792
#	296219
#	311194
#
# Disc length: 4318 seconds
#
# Revision: 0
# Processed by: cddbd v1.5.1PL0 Copyright (c) Steve Scherf et al.
# Submitted via: CDex 1.50
#
DISCID=8010dc19
DTITLE=Chet Baker - Young Chet
DYEAR=1900
DGENRE=Jazz
TTITLE0=Makin' Whoopee
TTITLE1=Motel
TTITLE2=Jeru
TTITLE3=Swing House
TTITLE4=I May Be Wrong
TTITLE5=Isn't it Romantic
TTITLE6=The Lamp is Low
TTITLE7=This Time the Dream's On Me
TTITLE8=Maid in Mexico
TTITLE9=Russ Job
TTITLE10=Imagination
TTITLE11=Long Ago and Far Away
TTITLE12=Carson City Stage
TTITLE13=Easy To Love
TTITLE14=Batter Up
TTITLE15=No Ties
TTITLE16=All the Things You Are
TTITLE17=The Thrill is Gone
TTITLE18=Band Aid
TTITLE19=Bea's Flat
TTITLE20=Moon Love
TTITLE21=Happy Little Sunbeam
TTITLE22=I Fall in Love Too Easily
TTITLE23=Winter Wonderland
TTITLE24=The Thrill is Gone
EXTD=
EXTT0=
EXTT1=
EXTT2=
EXTT3=
EXTT4=
EXTT5=
EXTT6=
EXTT7=
EXTT8=
EXTT9=
EXTT10=
EXTT11=
EXTT12=
EXTT13=
EXTT14=
EXTT15=
EXTT16=
EXTT17=
EXTT18=
EXTT19=
EXTT20=
EXTT21=
EXTT22=
EXTT23=
EXTT24=
PLAYORDER=
